HIERARCHY
ROOT Hips
{
	OFFSET 0.00000 0.00000 0.00000
	CHANNELS 6 Xposition Yposition Zposition Zrotation Yrotation Xrotation 
	JOINT LHipJoint
	{
		OFFSET 0 0 0
		CHANNELS 3 Zrotation Yrotation Xrotation
		JOINT LeftUpLeg
		{
			OFFSET 1.36306 -1.79463 0.83929
			CHANNELS 3 Zrotation Yrotation Xrotation
			JOINT LeftLeg
			{
				OFFSET 2.44811 -6.72613 0.00000
				CHANNELS 3 Zrotation Yrotation Xrotation
				JOINT LeftFoot
				{
					OFFSET 2.56220 -7.03959 0.00000
					CHANNELS 3 Zrotation Yrotation Xrotation
					JOINT LeftToeBase
					{
						OFFSET 0.15764 -0.43311 2.32255
						CHANNELS 3 Zrotation Yrotation Xrotation
						End Site
						{
							OFFSET 0.00000 -0.00000 1.18966
						}
					}
				}
			}
		}
	}
	JOINT RHipJoint
	{
		OFFSET 0 0 0
		CHANNELS 3 Zrotation Yrotation Xrotation
		JOINT RightUpLeg
		{
			OFFSET -1.30552 -1.79463 0.83929
			CHANNELS 3 Zrotation Yrotation Xrotation
			JOINT RightLeg
			{
				OFFSET -2.54253 -6.98555 0.00000
				CHANNELS 3 Zrotation Yrotation Xrotation
				JOINT RightFoot
				{
					OFFSET -2.56826 -7.05623 0.00000
					CHANNELS 3 Zrotation Yrotation Xrotation
					JOINT RightToeBase
					{
						OFFSET -0.16473 -0.45259 2.36315
						CHANNELS 3 Zrotation Yrotation Xrotation
						End Site
						{
							OFFSET -0.00000 -0.00000 1.21082
						}
					}
				}
			}
		}
	}
	JOINT LowerBack
	{
		OFFSET 0 0 0
		CHANNELS 3 Zrotation Yrotation Xrotation
		JOINT Spine
		{
			OFFSET 0.02827 2.03559 -0.19338
			CHANNELS 3 Zrotation Yrotation Xrotation
			JOINT Spine1
			{
				OFFSET 0.05672 2.04885 -0.04275
				CHANNELS 3 Zrotation Yrotation Xrotation
				JOINT Neck
				{
					OFFSET 0 0 0
					CHANNELS 3 Zrotation Yrotation Xrotation
					JOINT Neck1
					{
						OFFSET -0.05417 1.74624 0.17202
						CHANNELS 3 Zrotation Yrotation Xrotation
						JOINT Head
						{
							OFFSET 0.10407 1.76136 -0.12397
							CHANNELS 3 Zrotation Yrotation Xrotation
							End Site
							{
								OFFSET 0.03720 1.77044 -0.06241
							}
						}
					}
				}
				JOINT LeftShoulder
				{
					OFFSET 0 0 0
					CHANNELS 3 Zrotation Yrotation Xrotation
					JOINT LeftArm
					{
						OFFSET 3.36241 1.20089 -0.31121
						CHANNELS 3 Zrotation Yrotation Xrotation
						JOINT LeftForeArm
						{
							OFFSET 4.98300 -0.00000 -0.00000
							CHANNELS 3 Zrotation Yrotation Xrotation
							JOINT LeftHand
							{
								OFFSET 3.48356 -0.00000 -0.00000
								CHANNELS 3 Zrotation Yrotation Xrotation
								JOINT LeftFingerBase
								{
									OFFSET 0 0 0
									CHANNELS 3 Zrotation Yrotation Xrotation
									JOINT LeftHandIndex1
									{
										OFFSET 0.71526 -0.00000 -0.00000
										CHANNELS 3 Zrotation Yrotation Xrotation
										End Site
										{
											OFFSET 0.57666 -0.00000 -0.00000
										}
									}
								}
								JOINT LThumb
								{
									OFFSET 0 0 0
									CHANNELS 3 Zrotation Yrotation Xrotation
									End Site
									{
										OFFSET 0.58547 -0.00000 0.58547
									}
								}
							}
						}
					}
				}
				JOINT RightShoulder
				{
					OFFSET 0 0 0
					CHANNELS 3 Zrotation Yrotation Xrotation
					JOINT RightArm
					{
						OFFSET -3.13660 1.37405 -0.40465
						CHANNELS 3 Zrotation Yrotation Xrotation
						JOINT RightForeArm
						{
							OFFSET -5.24190 -0.00000 -0.00000
							CHANNELS 3 Zrotation Yrotation Xrotation
							JOINT RightHand
							{
								OFFSET -3.44417 -0.00000 -0.00000
								CHANNELS 3 Zrotation Yrotation Xrotation
								JOINT RightFingerBase
								{
									OFFSET 0 0 0
									CHANNELS 3 Zrotation Yrotation Xrotation
									JOINT RightHandIndex1
									{
										OFFSET -0.62253 -0.00000 -0.00000
										CHANNELS 3 Zrotation Yrotation Xrotation
										End Site
										{
											OFFSET -0.50190 -0.00000 -0.00000
										}
									}
								}
								JOINT RThumb
								{
									OFFSET 0 0 0
									CHANNELS 3 Zrotation Yrotation Xrotation
									End Site
									{
										OFFSET -0.50956 -0.00000 0.50956
									}
								}
							}
						}
					}
				}
			}
		}
	}
}
MOTION
Frames: 15
Frame Time: 0.0129032
0.00 0.00 0.00 0 0 0 0 0 0 -21 0 0 0 0 0 0 0 0 0 0 0 0 0 0 21 0 0 0 0 0 0 0 0 0 0 0 0 0 0 0 0 0 0 0 0 0 0 -16 0 0 21 0 0 11 0 0 0 -8 0 0 0 0 0 0 0 0 0 0 0 0 0 0 0 0 0 0 0 0 8 0 0 0 0 0 0 0 0 0 0 0 0 0 0 0 0 0
0.00 0.00 0.00 -146.5920 -75.4300 150.1130 0.0000 0.0000 0.0000 -10.5309 -4.7071 -24.3489 4.3635 12.6291 37.9953 0.6086 -2.2622 -14.1372 0.2749 3.3725 9.3177 0.0000 0.0000 0.0000 29.9479 0.1944 5.8219 -3.2890 -11.1488 32.7834 -0.4158 1.2622 -11.8060 -0.0460 1.3838 -3.8055 6.4560 1.4168 9.0337 4.1631 2.3959 2.3707 0.4404 1.0798 -2.5029 -8.5024 -6.7381 -3.3412 4.1863 -8.7701 4.0143 2.5304 -4.4091 2.5044 0.0000 -0.0000 0.0000 -90.4842 9.7438 -0.7334 11.8448 -19.5715 -2.0500 -0.0000 -0.0000 3.7988 12.1832 -1.6608 -0.3585 -7.1250 0.0000 -0.0000 -11.1029 28.2136 4.6146 0.0000 -0.0000 0.0000 84.4763 -1.5367 7.4171 -10.3478 17.2817 -1.5767 0.0000 -0.0000 -7.8849 -30.4406 -22.3063 12.5739 7.1250 -0.0000 -0.0000 -1.6690 -55.4197 0.4270
0.00 0.00 0.00 -161.0620 -77.0938 163.4300 0.0000 0.0000 0.0000 -16.2319 -2.9311 -18.7190 3.4663 11.4141 33.6896 0.6702 -2.4185 -14.8303 0.2681 3.3311 9.2019 0.0000 0.0000 0.0000 24.1819 1.9753 -0.9369 -6.7505 -15.1182 47.9243 -0.0023 -0.3549 -1.1038 -0.2158 2.9904 -8.2520 3.4250 0.9780 9.0145 3.0651 1.5963 2.0561 1.0712 0.7223 -2.9108 -8.6620 -6.0889 -3.9100 4.1803 -7.8529 4.5092 2.5835 -3.9566 2.7211 -0.0000 0.0000 0.0000 -90.4700 8.1399 1.3896 11.8562 -19.5887 -2.0538 -0.0000 -0.0000 3.9285 12.8298 -2.1164 -0.4819 -7.1250 0.0000 -0.0000 -10.5653 27.7563 4.5001 -0.0000 0.0000 0.0000 84.5872 -1.7242 9.2462 -11.8196 19.5335 -2.0416 0.0000 -0.0000 -9.0814 -28.2279 -24.0963 12.3620 7.1250 -0.0000 -0.0000 1.2321 -56.8884 -0.3590
0.00 0.00 0.00 -176.1070 -77.8332 176.8800 0.0000 0.0000 0.0000 -20.9365 0.3310 -11.6591 2.3607 9.5801 27.6273 0.6434 -3.3293 -14.3867 0.3636 3.8735 10.7209 0.0000 0.0000 0.0000 18.9250 4.2629 -10.0534 -11.5778 -18.2064 64.6441 -0.0585 -2.6636 4.4081 -0.0788 1.8105 -4.9824 -0.0295 0.1079 9.3474 2.2551 0.1351 1.9867 2.3407 0.0360 -3.1833 -8.3515 -5.5932 -2.9839 3.6024 -7.2220 1.7202 2.4117 -3.6191 1.5362 0.0000 -0.0000 0.0000 -89.3981 4.2559 7.1387 12.4823 -20.5240 -2.2686 -0.0000 -0.0000 3.9689 14.3262 -2.8791 -0.7349 -7.1250 0.0000 -0.0000 -9.3634 26.9776 4.1486 0.0000 -0.0000 0.0000 85.1395 -0.6458 15.4740 -14.6704 23.6850 -3.0923 0.0000 -0.0000 -14.8406 -26.0804 -24.3886 11.4263 7.1250 -0.0000 -0.0000 3.6876 -56.7255 -1.0608
0.00 0.00 0.00 -182.1830 -77.2253 185.3330 0.0000 0.0000 0.0000 -22.8872 4.6810 -1.5274 1.4926 7.7178 21.8602 1.4557 -4.6572 -21.7654 0.1111 2.1492 5.9183 0.0000 0.0000 0.0000 14.4891 10.0325 -34.3087 -3.8811 -12.0004 35.7335 0.1536 -9.3920 -10.1837 -0.1536 -2.5253 6.9597 -4.3567 -1.8170 8.8205 2.9388 -2.7887 1.5030 5.8365 -1.3686 -3.0241 -8.0012 -5.3416 -4.8191 5.9587 -6.7757 -5.3299 3.2030 -3.3429 -0.3531 0.0000 0.0000 0.0000 -82.7713 -11.2351 28.4804 22.2600 -33.2696 -6.7279 -0.0000 0.0000 -4.7926 20.0692 -5.9088 -2.1539 -7.1250 0.0000 -0.0000 -4.9229 23.6960 2.5384 0.0000 0.0000 0.0000 82.2038 9.0287 38.0336 -18.2597 28.4884 -4.6725 0.0000 -0.0000 -24.7061 -23.3154 -19.2677 8.0942 7.1250 -0.0000 -0.0000 4.9944 -50.7524 -0.7095
0.00 0.00 0.00 -164.2370 -79.4949 165.9360 0.0000 0.0000 0.0000 -14.3635 3.8098 8.1795 3.8669 11.9811 35.6652 0.0000 0.1103 -0.1696 0.2275 -3.0698 -8.4731 0.0000 0.0000 0.0000 22.9445 9.3431 -26.7283 -2.9201 -10.5645 30.8248 -0.0005 -3.7766 -5.4153 -1.1563 -6.8271 19.2040 -2.2973 -2.0145 9.5878 3.0695 -2.9648 3.3658 4.7995 -1.5729 -1.5891 -10.0844 -8.0395 -3.0258 3.0749 -10.4194 0.5816 2.4244 -5.2236 1.4464 -0.0000 0.0000 0.0000 -85.7646 -5.7135 30.3396 18.1139 -28.3027 -4.6031 -0.0000 0.0000 -1.8728 17.6132 -6.9591 -2.2028 -7.1250 0.0000 -0.0000 -6.7132 22.6964 3.6273 -0.0000 0.0000 0.0000 84.9945 3.8611 -3.0564 -5.9325 10.1496 -0.5273 0.0000 0.0000 1.7489 -27.0297 -20.4071 10.0870 7.1250 -0.0000 -0.0000 1.5256 -52.6417 -0.2870
0.00 0.00 0.00 -151.0300 -78.7393 151.2150 0.0000 0.0000 0.0000 -9.3672 2.2347 1.2438 7.5120 15.7483 50.7850 0.6572 3.8035 14.4966 0.1493 2.4902 6.8624 0.0000 0.0000 0.0000 27.3434 9.0924 -19.8666 -2.5592 -9.9448 28.7982 -0.0487 -4.7655 -8.2865 -1.7419 -8.3063 23.6483 -0.5654 -1.6537 10.1408 3.2902 -2.3632 3.8173 4.0007 -1.2871 -1.5459 -11.8163 -8.2863 -1.4167 2.6798 -10.8664 4.1807 2.5705 -5.5726 2.4781 -0.0000 0.0000 0.0000 -85.9704 -3.9557 28.8672 14.9255 -24.0422 -3.1955 -0.0000 -0.0000 1.8049 15.6619 -4.8158 -1.3484 -7.1250 0.0000 -0.0000 -8.2353 24.9762 4.0275 -0.0000 0.0000 0.0000 86.0296 2.0133 -7.7214 -6.0217 10.2983 -0.5431 0.0000 0.0000 7.5098 -25.6832 -21.1585 9.8474 7.1250 -0.0000 -0.0000 3.1073 -53.1954 -0.6269
0.00 0.00 0.00 -136.1680 -76.8877 134.7760 0.0000 0.0000 0.0000 -2.5116 -1.3130 -10.4633 12.8250 18.7180 68.5809 0.6617 0.7589 15.1283 0.5759 4.8595 13.5083 0.0000 0.0000 0.0000 33.6754 6.5436 -10.7553 -1.9862 -8.8372 25.2874 -0.1142 -5.9171 -11.0862 -1.0759 -6.5933 18.5160 2.3895 -0.6486 9.5397 3.0701 -0.8593 4.7159 1.9145 -0.5291 -0.4349 -12.6743 -8.1142 3.1953 1.5231 -11.2856 8.6053 2.4227 -6.0398 3.1629 0.0000 -0.0000 0.0000 -86.5086 -2.8511 19.8093 11.8490 -19.5777 -2.0514 -0.0000 -0.0000 7.7208 13.0156 -3.9707 -0.9170 -7.1250 0.0000 -0.0000 -10.2682 25.8842 4.8288 0.0000 -0.0000 0.0000 86.5705 1.5706 -1.2364 -6.9957 11.9121 -0.7308 0.0000 0.0000 6.2354 -20.4710 -22.0892 7.9911 7.1250 -0.0000 -0.0000 8.7351 -53.1919 -1.7709
0.00 0.00 0.00 -128.6550 -74.4482 127.7860 0.0000 0.0000 0.0000 2.7464 -5.3910 -27.6588 12.9571 18.7666 68.9922 -0.1325 -6.9093 -0.1424 0.1036 2.0756 5.7145 0.0000 0.0000 0.0000 38.0736 0.7152 -5.3006 -1.9412 -8.7424 24.9929 -0.6915 -0.6649 -15.9655 -1.2234 -7.0154 19.7611 5.5248 1.3493 8.1219 2.2786 1.9221 5.0680 -0.8803 0.9527 0.8211 -15.2359 -8.4000 7.7843 3.0433 -12.8289 14.0268 3.0388 -7.1505 4.1915 0.0000 0.0000 0.0000 -85.7295 1.2261 17.5128 13.7750 -22.4122 -2.7418 -0.0000 0.0000 -0.7208 17.6839 -3.9337 -1.2530 -7.1250 0.0000 -0.0000 -6.7604 25.8440 3.1580 0.0000 0.0000 0.0000 85.7237 1.7041 13.2360 -13.0483 21.3580 -2.4709 0.0000 -0.0000 -7.8466 -23.9505 -22.8529 9.7877 7.1250 -0.0000 -0.0000 5.4299 -54.6551 -1.2908
0.00 0.00 0.00 -140.5280 -73.1377 143.1200 0.0000 0.0000 0.0000 -2.8424 -9.6965 -31.7123 2.6480 10.1022 29.3083 0.0139 -7.8639 -5.8023 0.3687 3.9003 10.7963 0.0000 0.0000 0.0000 36.6551 1.3992 9.3754 -2.1148 -9.1012 26.1124 -0.8973 -6.1107 -21.1155 -0.0008 -0.1859 0.5107 5.1926 3.6035 6.5500 1.3612 4.8165 5.1215 -1.7062 2.4445 1.9600 -19.0513 -8.7507 8.8958 8.3453 -14.7425 18.1709 5.1117 -8.3048 6.1593 -0.0000 0.0000 0.0000 -88.9058 4.8161 15.3842 12.9990 -21.2857 -2.4529 -0.0000 -0.0000 0.7585 15.0252 -4.2049 -1.1275 -7.1250 0.0000 -0.0000 -8.7458 25.6156 4.1509 -0.0000 0.0000 0.0000 76.4693 8.8083 11.1773 -34.4361 44.4053 -14.4174 0.0000 -0.0000 -6.1984 -21.4112 -21.7727 8.2755 7.1250 -0.0000 -0.0000 7.6699 -53.0390 -1.5240
0.00 0.00 0.00 -182.5610 -72.3215 182.0220 0.0000 0.0000 0.0000 -20.0715 5.2616 -13.2901 2.2346 9.3386 26.8604 -0.2697 -15.3227 -7.5263 0.5236 4.6375 12.8774 0.0000 0.0000 0.0000 16.5761 2.8948 -29.0056 -12.7648 -18.6956 68.3932 0.1630 -7.6352 -5.6806 -0.3956 -4.0383 11.1845 -6.3623 0.1676 9.9639 -0.1242 -0.5571 4.4519 3.5095 -0.4419 -0.8858 -14.6055 -9.2476 7.7107 7.4334 -15.3262 19.0974 4.0447 -8.4298 6.2794 0.0000 0.0000 0.0000 -78.8769 -0.9876 16.9448 17.9869 -28.1404 -4.5431 -0.0000 0.0000 -3.1723 16.9268 -4.0673 -1.2366 -7.1250 0.0000 -0.0000 -7.3247 25.7209 3.4468 0.0000 0.0000 0.0000 48.5288 16.7216 -6.8624 -75.6641 59.2090 -47.6177 0.0000 0.0000 6.2714 -33.5732 -19.2097 12.3190 7.1250 -0.0000 -0.0000 -5.5279 -52.5905 1.0352
0.00 0.00 0.00 -187.3910 -72.4416 186.6880 0.0000 0.0000 0.0000 -19.6285 11.8047 -9.5848 1.8722 8.5947 24.5355 -1.1126 -21.7983 -4.6714 1.2306 7.0351 19.8194 0.0000 0.0000 0.0000 16.9115 4.5420 -31.9074 -8.1270 -16.2119 53.0189 -0.1166 -7.5427 -12.9927 -0.6214 -5.0444 14.0354 -10.6504 -0.0576 10.6506 0.0157 -1.3471 4.6301 6.1665 -0.9129 -0.8437 -14.5185 -9.7188 6.4144 9.4791 -16.1271 18.9110 4.5400 -8.6583 6.6695 0.0000 0.0000 0.0000 -73.9356 -4.7814 14.6501 20.5113 -31.2535 -5.7943 -0.0000 0.0000 -7.0644 19.8385 -4.5987 -1.6569 -7.1250 0.0000 -0.0000 -5.1175 25.0911 2.4739 0.0000 0.0000 0.0000 39.9921 18.6089 -13.4658 -68.8040 58.2324 -41.7527 0.0000 0.0000 6.7650 -38.8221 -20.2140 15.5375 7.1250 -0.0000 -0.0000 -11.2759 -54.9203 2.7734
0.00 0.00 0.00 -190.7670 -71.3062 191.9910 0.0000 0.0000 0.0000 -21.4834 11.2974 -7.5008 1.6518 8.0997 23.0172 -0.6627 -21.3960 -9.2788 0.7242 5.4377 15.1614 0.0000 0.0000 0.0000 17.5585 2.4840 -36.4791 -4.3743 -12.6425 38.0447 0.1080 -10.4561 -13.0539 -0.4360 -4.2373 11.7452 -10.0847 -0.4912 10.4084 -0.2865 -1.8461 3.9176 5.5849 -1.0786 -1.4078 -14.7002 -10.4612 5.6716 9.5760 -17.0059 18.5759 4.4636 -9.0340 6.8279 0.0000 0.0000 0.0000 -72.2050 -7.7759 11.7011 21.5810 -32.5002 -6.3592 -0.0000 0.0000 -8.0804 22.4020 -4.1985 -1.7286 -7.1250 0.0000 -0.0000 -3.1951 25.4390 1.5151 0.0000 0.0000 0.0000 34.5766 18.4534 -17.3072 -63.4527 57.1619 -37.2284 0.0000 0.0000 8.7132 -39.0562 -18.9110 14.7338 7.1250 -0.0000 -0.0000 -11.5060 -53.4196 2.4075
0.00 0.00 0.00 -193.6210 -69.8403 197.4730 0.0000 0.0000 0.0000 -23.6665 9.5316 -4.8265 1.4677 7.6559 21.6737 0.2253 -19.1749 -15.3632 0.4449 4.2795 11.8645 0.0000 0.0000 0.0000 17.6863 4.8878 -39.2070 -1.8485 -8.5431 24.3762 -0.6266 -15.3525 -27.2520 -0.1499 -2.4949 6.8756 -8.3761 -1.1146 8.8595 -0.5127 -2.3388 3.3391 4.3933 -1.2816 -1.1693 -15.4051 -10.7092 4.1390 10.1167 -17.1896 18.5269 4.6139 -9.0557 7.2057 0.0000 -0.0000 0.0000 -71.4867 -10.6157 11.2531 21.9529 -32.9238 -6.5602 -0.0000 0.0000 -7.0905 20.1792 -5.2425 -1.9233 -7.1250 0.0000 -0.0000 -4.8504 24.3980 2.4220 0.0000 -0.0000 0.0000 27.9678 18.2757 -21.5363 -55.6805 55.0445 -30.7730 0.0000 0.0000 11.5703 -37.6977 -19.8046 14.6731 7.1250 -0.0000 -0.0000 -9.9983 -54.1734 2.2715
0.00 0.00 0.00 -185.6740 -67.7198 188.7850 0.0000 0.0000 0.0000 -15.8070 9.5906 -2.1340 4.1288 12.3299 36.9092 -0.6323 -14.3314 1.6637 0.0001 0.0682 0.1874 0.0000 0.0000 0.0000 25.7025 1.1168 -34.8373 -2.8625 -10.4691 30.5096 -0.1997 -14.6513 -22.8281 -5.1761 -13.5794 41.5782 -2.9003 -1.5358 9.9059 1.5669 -2.4089 3.0881 3.5356 -1.2644 -2.1503 -18.3141 -11.5844 5.5567 12.3971 -19.7832 20.2836 5.5302 -10.4972 8.4617 -0.0000 0.0000 0.0000 -77.5237 -2.2055 20.0964 25.7374 -36.9483 -8.7294 -0.0000 -0.0000 0.8165 14.0440 -10.5764 -2.6288 -7.1250 0.0000 -0.0000 -9.1919 19.1591 5.7400 -0.0000 0.0000 0.0000 32.8209 11.8219 -31.0094 -81.8646 59.7484 -52.9605 0.0000 0.0000 16.8046 -27.5907 -24.0485 12.0219 7.1250 -0.0000 -0.0000 1.9206 -56.6948 -0.5507
